# xmcd
#
# Track frame offsets:
#	150
#	20907
#	42356
#	62506
#	79932
#	98477
#	101897
#	117161
#	138580
#	157780
#	173812
#	188742
#	205978
#
# Disc length: 2790 seconds
#
# Revision: 1
# Processed by: cddbd v1.5PL3 Copyright (c) Steve Scherf et al.
# Submitted via: audiograbber 1.82.02
#
DISCID=ab0ae40d
DTITLE=Sarah Connor - Key To My Soul
DYEAR=2003
DGENRE=Pop
TTITLE0=Music Is The Key
TTITLE1=Love Is Color - Blind
TTITLE2=Just One Last Dance
TTITLE3=My Intuition
TTITLE4=Daddy's Eyes
TTITLE5=Whatcha Wearing ( Interlude )
TTITLE6=Turn Of The Lights
TTITLE7=I'm Gonna Find You ( Osla Suite )
TTITLE8=Every Momeny Of My Life
TTITLE9=Are You Ready To Ride
TTITLE10=For The People
TTITLE11=I Want Some Of That
TTITLE12=At The Station ( Interlude )
EXTD=
EXTT0=
EXTT1=
EXTT2=
EXTT3=
EXTT4=
EXTT5=
EXTT6=
EXTT7=
EXTT8=
EXTT9=
EXTT10=
EXTT11=
EXTT12=
PLAYORDER=
